<svg width="25" height="24" viewBox="0 0 25 24" fill="none" xmlns="http://www.w3.org/2000/svg">
<path fill-rule="evenodd" clip-rule="evenodd" d="M24.5 12C24.5 18.6274 19.1274 24 12.5 24C5.87257 24 0.5 18.6274 0.5 12C0.5 5.37257 5.87257 0 12.5 0C19.1274 0 24.5 5.37257 24.5 12ZM8.40226 6.69759H16.5973H16.5983C18.104 6.69759 19.0591 8.32504 18.302 9.6369L13.2434 18.4032C12.9133 18.9756 12.0862 18.9756 11.7562 18.4032L6.69851 9.6369C5.94046 8.32294 6.89549 6.69759 8.40226 6.69759ZM11.751 15.7724V8.19506H8.40123C8.03407 8.19506 7.81751 8.58493 7.99284 8.88917L10.6506 13.6426L11.751 15.7724ZM14.3479 13.6436L17.0046 8.88814C17.18 8.5839 16.9634 8.19403 16.5962 8.19403H13.2464V15.7743L14.3479 13.6436Z" fill="#F5F5F7"/>
</svg>
