<svg xmlns="http://www.w3.org/2000/svg" width="1184" height="180" viewBox="0 0 1184 180" fill="none">
  <path d="M267.705 2.02793e-05V35.9999L0 35.9999V0L267.705 2.02793e-05Z" fill="#D9D9D9"/>
  <path d="M110.737 81.6002L156.976 36.0003V180H110.737V81.6002Z" fill="#D9D9D9"/>
  <path fill-rule="evenodd" clip-rule="evenodd" d="M337.067 180H512.292L558.532 134.4V45.5999L512.292 0L337.067 0.000178974L290.827 45.5999V134.4L337.067 180ZM512.292 28.5001L337.067 28.5001V151.2L512.292 151.2V28.5001Z" fill="#D9D9D9"/>
  <path d="M592.603 1.28746e-05H682.64L818.926 180H767.819L631.542 0.0119564V179.999H592.603V1.28746e-05Z" fill="#D9D9D9"/>
  <path d="M857.874 1.28746e-05H818.935V179.999H857.874V1.28746e-05Z" fill="#D9D9D9"/>
  <path d="M988.341 89.9995L891.956 0H944.804L1037.98 89.9995L944.804 179.999H891.956L988.341 89.9995Z" fill="#D9D9D9"/>
  <path d="M1037.98 89.9995L1131.15 0H1184L1087.61 89.9995L1184 179.999H1131.15L1037.98 89.9995Z" fill="#D9D9D9"/>
</svg>