<svg width="67" height="30" viewBox="0 0 67 30" fill="none" xmlns="http://www.w3.org/2000/svg">
<path d="M9.188 20H7.652V12.728H5.192V11.432H11.648V12.728H9.188V20ZM20.2814 15.704C20.2814 16.592 20.1334 17.368 19.8374 18.032C19.5494 18.688 19.1054 19.2 18.5054 19.568C17.9054 19.936 17.1534 20.12 16.2494 20.12C15.3374 20.12 14.5814 19.936 13.9814 19.568C13.3894 19.2 12.9454 18.684 12.6494 18.02C12.3614 17.356 12.2174 16.58 12.2174 15.692C12.2174 14.812 12.3614 14.044 12.6494 13.388C12.9454 12.724 13.3894 12.212 13.9814 11.852C14.5814 11.484 15.3414 11.3 16.2614 11.3C17.1654 11.3 17.9134 11.484 18.5054 11.852C19.1054 12.212 19.5494 12.724 19.8374 13.388C20.1334 14.044 20.2814 14.816 20.2814 15.704ZM13.8374 15.704C13.8374 16.672 14.0294 17.432 14.4134 17.984C14.7974 18.536 15.4094 18.812 16.2494 18.812C17.0974 18.812 17.7094 18.536 18.0854 17.984C18.4694 17.432 18.6614 16.672 18.6614 15.704C18.6614 14.736 18.4734 13.976 18.0974 13.424C17.7214 12.872 17.1094 12.596 16.2614 12.596C15.4214 12.596 14.8054 12.872 14.4134 13.424C14.0294 13.976 13.8374 14.736 13.8374 15.704ZM29.2898 20H27.3818L23.3258 13.28H23.2778C23.3018 13.64 23.3218 14.028 23.3378 14.444C23.3618 14.852 23.3778 15.264 23.3858 15.68V20H22.0058V11.432H23.9018L27.9458 18.104H27.9818C27.9658 17.784 27.9498 17.416 27.9338 17C27.9178 16.584 27.9058 16.18 27.8978 15.788V11.432H29.2898V20ZM37.9255 20H36.1735L34.0735 16.58L31.9615 20H30.3295L33.1735 15.56L30.5095 11.432H32.2015L34.1455 14.624L36.0775 11.432H37.7215L35.0455 15.62L37.9255 20Z" fill="white"/>
<path d="M55 9L53.9425 10.0575L58.1275 14.25H49V15.75H58.1275L53.9425 19.9425L55 21L61 15L55 9Z" fill="white"/>
</svg>
