<svg width="190" height="24" viewBox="0 0 190 24" fill="none" xmlns="http://www.w3.org/2000/svg">
<path d="M25.9283 4.5V7.49999L3.92847 7.49999V4.5L25.9283 4.5Z" fill="white"/>
<path d="M13.0287 11.3L16.8287 7.50003V19.5H13.0287V11.3Z" fill="white"/>
<path fill-rule="evenodd" clip-rule="evenodd" d="M31.6285 19.5H46.0284L49.8284 15.7V8.29999L46.0284 4.5L31.6285 4.50001L27.8285 8.29999V15.7L31.6285 19.5ZM46.0284 6.87501L31.6285 6.87501V17.1L46.0284 17.1V6.87501Z" fill="white"/>
<path d="M52.6283 4.5H60.0275L71.2274 19.5H67.0275L55.8283 4.501V19.4999H52.6283V4.5Z" fill="white"/>
<path d="M74.4281 4.5H71.2282V19.4999H74.4281V4.5Z" fill="white"/>
<path d="M85.1499 12L77.2289 4.5H81.572L89.2289 12L81.572 19.4999H77.2289L85.1499 12Z" fill="white"/>
<path d="M89.2289 12L96.886 4.5H101.229L93.3081 12L101.229 19.4999H96.886L89.2289 12Z" fill="white"/>
<path opacity="0.6" d="M110.324 17.5L114.111 6.988H116.502L120.404 17.5H118.95L115.422 7.9096L116.113 8.2552H114.414L115.148 7.9096L111.735 17.5H110.324ZM112.585 14.3608L113.06 13.0936H117.596L118.071 14.3608H112.585ZM124.743 17.7592C124.08 17.7592 123.504 17.644 123.015 17.4136C122.535 17.1832 122.136 16.876 121.819 16.492C121.503 16.0984 121.263 15.6664 121.099 15.196C120.946 14.7256 120.869 14.2552 120.869 13.7848V13.5256C120.869 13.036 120.946 12.556 121.099 12.0856C121.263 11.6152 121.503 11.1928 121.819 10.8184C122.146 10.4344 122.549 10.1272 123.029 9.8968C123.509 9.6664 124.071 9.5512 124.714 9.5512C125.357 9.5512 125.933 9.6712 126.442 9.9112C126.96 10.1512 127.373 10.492 127.68 10.9336C127.997 11.3656 128.175 11.8792 128.213 12.4744H126.888C126.821 11.9944 126.6 11.596 126.226 11.2792C125.851 10.9528 125.347 10.7896 124.714 10.7896C124.167 10.7896 123.711 10.9144 123.346 11.164C122.981 11.4136 122.707 11.7544 122.525 12.1864C122.343 12.6184 122.251 13.108 122.251 13.6552C122.251 14.1832 122.343 14.668 122.525 15.1096C122.707 15.5416 122.981 15.8872 123.346 16.1464C123.72 16.396 124.186 16.5208 124.743 16.5208C125.175 16.5208 125.549 16.444 125.866 16.2904C126.183 16.1368 126.437 15.9304 126.629 15.6712C126.821 15.412 126.936 15.1192 126.975 14.7928H128.299C128.271 15.3976 128.093 15.9208 127.767 16.3624C127.45 16.804 127.027 17.1496 126.499 17.3992C125.981 17.6392 125.395 17.7592 124.743 17.7592ZM132.875 17.7592C132.212 17.7592 131.636 17.644 131.147 17.4136C130.667 17.1832 130.268 16.876 129.952 16.492C129.635 16.0984 129.395 15.6664 129.232 15.196C129.078 14.7256 129.001 14.2552 129.001 13.7848V13.5256C129.001 13.036 129.078 12.556 129.232 12.0856C129.395 11.6152 129.635 11.1928 129.952 10.8184C130.278 10.4344 130.681 10.1272 131.161 9.8968C131.641 9.6664 132.203 9.5512 132.846 9.5512C133.489 9.5512 134.065 9.6712 134.574 9.9112C135.092 10.1512 135.505 10.492 135.812 10.9336C136.129 11.3656 136.307 11.8792 136.345 12.4744H135.02C134.953 11.9944 134.732 11.596 134.358 11.2792C133.984 10.9528 133.48 10.7896 132.846 10.7896C132.299 10.7896 131.843 10.9144 131.478 11.164C131.113 11.4136 130.84 11.7544 130.657 12.1864C130.475 12.6184 130.384 13.108 130.384 13.6552C130.384 14.1832 130.475 14.668 130.657 15.1096C130.84 15.5416 131.113 15.8872 131.478 16.1464C131.852 16.396 132.318 16.5208 132.875 16.5208C133.307 16.5208 133.681 16.444 133.998 16.2904C134.315 16.1368 134.569 15.9304 134.761 15.6712C134.953 15.412 135.068 15.1192 135.107 14.7928H136.432C136.403 15.3976 136.225 15.9208 135.899 16.3624C135.582 16.804 135.16 17.1496 134.632 17.3992C134.113 17.6392 133.528 17.7592 132.875 17.7592ZM140.978 17.7592C140.306 17.7592 139.725 17.644 139.236 17.4136C138.746 17.1832 138.348 16.8808 138.041 16.5064C137.733 16.1224 137.503 15.6952 137.349 15.2248C137.205 14.7544 137.133 14.2744 137.133 13.7848V13.5256C137.133 13.0264 137.205 12.5416 137.349 12.0712C137.503 11.6008 137.733 11.1784 138.041 10.804C138.348 10.42 138.737 10.1176 139.207 9.8968C139.687 9.6664 140.249 9.5512 140.892 9.5512C141.727 9.5512 142.413 9.7336 142.951 10.0984C143.498 10.4536 143.901 10.9144 144.161 11.4808C144.429 12.0472 144.564 12.652 144.564 13.2952V13.9144H137.738V12.8776H143.556L143.239 13.4392C143.239 12.892 143.153 12.4216 142.98 12.028C142.807 11.6248 142.548 11.3128 142.202 11.092C141.857 10.8712 141.42 10.7608 140.892 10.7608C140.345 10.7608 139.889 10.8856 139.524 11.1352C139.169 11.3848 138.9 11.7256 138.717 12.1576C138.545 12.5896 138.458 13.0888 138.458 13.6552C138.458 14.2024 138.545 14.6968 138.717 15.1384C138.9 15.5704 139.178 15.916 139.553 16.1752C139.927 16.4248 140.402 16.5496 140.978 16.5496C141.583 16.5496 142.073 16.4152 142.447 16.1464C142.831 15.8776 143.061 15.5656 143.138 15.2104H144.434C144.329 15.7384 144.117 16.1944 143.801 16.5784C143.484 16.9624 143.085 17.2552 142.605 17.4568C142.125 17.6584 141.583 17.7592 140.978 17.7592ZM146.012 17.5V6.988H147.395V17.5H146.012ZM144.947 8.0824V6.988H147.395V8.0824H144.947ZM152.715 17.7592C152.043 17.7592 151.462 17.644 150.972 17.4136C150.483 17.1832 150.084 16.8808 149.777 16.5064C149.47 16.1224 149.239 15.6952 149.086 15.2248C148.942 14.7544 148.87 14.2744 148.87 13.7848V13.5256C148.87 13.0264 148.942 12.5416 149.086 12.0712C149.239 11.6008 149.47 11.1784 149.777 10.804C150.084 10.42 150.473 10.1176 150.943 9.8968C151.423 9.6664 151.985 9.5512 152.628 9.5512C153.463 9.5512 154.15 9.7336 154.687 10.0984C155.235 10.4536 155.638 10.9144 155.897 11.4808C156.166 12.0472 156.3 12.652 156.3 13.2952V13.9144H149.475V12.8776H155.292L154.975 13.4392C154.975 12.892 154.889 12.4216 154.716 12.028C154.543 11.6248 154.284 11.3128 153.939 11.092C153.593 10.8712 153.156 10.7608 152.628 10.7608C152.081 10.7608 151.625 10.8856 151.26 11.1352C150.905 11.3848 150.636 11.7256 150.454 12.1576C150.281 12.5896 150.195 13.0888 150.195 13.6552C150.195 14.2024 150.281 14.6968 150.454 15.1384C150.636 15.5704 150.915 15.916 151.289 16.1752C151.663 16.4248 152.139 16.5496 152.715 16.5496C153.319 16.5496 153.809 16.4152 154.183 16.1464C154.567 15.8776 154.798 15.5656 154.875 15.2104H156.171C156.065 15.7384 155.854 16.1944 155.537 16.5784C155.22 16.9624 154.822 17.2552 154.342 17.4568C153.862 17.6584 153.319 17.7592 152.715 17.7592ZM157.662 17.5V9.8104H158.757V12.9784H158.699C158.699 11.8552 158.944 11.0344 159.433 10.516C159.933 9.988 160.677 9.724 161.665 9.724H161.925V10.9624H161.435C160.667 10.9624 160.077 11.1688 159.664 11.5816C159.251 11.9848 159.045 12.5704 159.045 13.3384V17.5H157.662ZM167.591 17.5V15.196H167.361V12.532C167.361 12.004 167.221 11.6056 166.943 11.3368C166.674 11.068 166.276 10.9336 165.748 10.9336C165.45 10.9336 165.143 10.9384 164.826 10.948C164.509 10.9576 164.207 10.9672 163.919 10.9768C163.631 10.9864 163.381 11.0008 163.17 11.02V9.8104C163.381 9.7912 163.602 9.7768 163.833 9.7672C164.073 9.748 164.317 9.7384 164.567 9.7384C164.817 9.7288 165.057 9.724 165.287 9.724C166.074 9.724 166.717 9.82 167.217 10.012C167.716 10.1944 168.085 10.4968 168.325 10.9192C168.565 11.3416 168.685 11.9128 168.685 12.6328V17.5H167.591ZM165.071 17.7016C164.495 17.7016 163.996 17.6056 163.573 17.4136C163.161 17.212 162.839 16.924 162.609 16.5496C162.388 16.1752 162.277 15.724 162.277 15.196C162.277 14.6488 162.397 14.1928 162.637 13.828C162.887 13.4632 163.247 13.1896 163.717 13.0072C164.188 12.8152 164.754 12.7192 165.417 12.7192H167.505V13.756H165.359C164.802 13.756 164.375 13.8904 164.077 14.1592C163.78 14.428 163.631 14.7736 163.631 15.196C163.631 15.6184 163.78 15.9592 164.077 16.2184C164.375 16.4776 164.802 16.6072 165.359 16.6072C165.685 16.6072 165.997 16.5496 166.295 16.4344C166.593 16.3096 166.837 16.108 167.029 15.8296C167.231 15.5416 167.341 15.148 167.361 14.6488L167.735 15.196C167.687 15.7432 167.553 16.204 167.332 16.5784C167.121 16.9432 166.823 17.2216 166.439 17.4136C166.065 17.6056 165.609 17.7016 165.071 17.7016ZM173.617 17.5864C173.041 17.5864 172.542 17.5048 172.12 17.3416C171.707 17.1784 171.385 16.9 171.155 16.5064C170.934 16.1032 170.824 15.5608 170.824 14.8792V7.4776H172.148V15.052C172.148 15.4648 172.259 15.7864 172.48 16.0168C172.71 16.2376 173.032 16.348 173.444 16.348H174.798V17.5864H173.617ZM169.499 10.8472V9.8104H174.798V10.8472H169.499ZM179.639 17.7592C178.967 17.7592 178.376 17.644 177.868 17.4136C177.359 17.1832 176.927 16.8808 176.572 16.5064C176.226 16.1224 175.962 15.6952 175.78 15.2248C175.607 14.7544 175.52 14.2744 175.52 13.7848V13.5256C175.52 13.036 175.612 12.556 175.794 12.0856C175.976 11.6056 176.245 11.1784 176.6 10.804C176.956 10.42 177.388 10.1176 177.896 9.8968C178.405 9.6664 178.986 9.5512 179.639 9.5512C180.292 9.5512 180.872 9.6664 181.381 9.8968C181.89 10.1176 182.322 10.42 182.677 10.804C183.032 11.1784 183.301 11.6056 183.484 12.0856C183.666 12.556 183.757 13.036 183.757 13.5256V13.7848C183.757 14.2744 183.666 14.7544 183.484 15.2248C183.311 15.6952 183.047 16.1224 182.692 16.5064C182.346 16.8808 181.919 17.1832 181.41 17.4136C180.901 17.644 180.311 17.7592 179.639 17.7592ZM179.639 16.5208C180.215 16.5208 180.704 16.396 181.108 16.1464C181.52 15.8872 181.832 15.5416 182.044 15.1096C182.264 14.6776 182.375 14.1928 182.375 13.6552C182.375 13.108 182.264 12.6184 182.044 12.1864C181.823 11.7544 181.506 11.4136 181.093 11.164C180.69 10.9144 180.205 10.7896 179.639 10.7896C179.082 10.7896 178.597 10.9144 178.184 11.164C177.772 11.4136 177.455 11.7544 177.234 12.1864C177.013 12.6184 176.903 13.108 176.903 13.6552C176.903 14.1928 177.008 14.6776 177.22 15.1096C177.44 15.5416 177.752 15.8872 178.156 16.1464C178.568 16.396 179.063 16.5208 179.639 16.5208ZM185.227 17.5V9.8104H186.321V12.9784H186.264C186.264 11.8552 186.509 11.0344 186.998 10.516C187.497 9.988 188.241 9.724 189.23 9.724H189.489V10.9624H189C188.232 10.9624 187.641 11.1688 187.229 11.5816C186.816 11.9848 186.609 12.5704 186.609 13.3384V17.5H185.227Z" fill="white"/>
</svg>
