<svg width="126" height="33" viewBox="0 0 126 33" fill="none" xmlns="http://www.w3.org/2000/svg">
<path fill-rule="evenodd" clip-rule="evenodd" d="M32.5051 16.5C32.5051 25.3367 25.3412 32.5 16.5051 32.5C7.66809 32.5 0.505127 25.3367 0.505127 16.5C0.505127 7.66333 7.66809 0.5 16.5051 0.5C25.3412 0.5 32.5051 7.66333 32.5051 16.5ZM17.0781 12.312C15.5221 12.9595 12.4121 14.2991 7.74719 16.3313C6.99011 16.6326 6.59314 16.9272 6.55713 17.2153C6.49609 17.7021 7.10608 17.8938 7.93616 18.155L7.98889 18.1719L8.14551 18.2212L8.28613 18.2664C9.10315 18.532 10.2021 18.8425 10.7731 18.855C11.2911 18.8662 11.8701 18.6526 12.5082 18.2141C16.8661 15.2722 19.1161 13.7854 19.2571 13.7532C19.3572 13.7307 19.4951 13.7021 19.5881 13.7854C19.6453 13.8357 19.6643 13.9136 19.6682 13.9763C19.6708 14.0171 19.667 14.0515 19.6631 14.0681C19.6022 14.3257 17.2091 16.551 15.9701 17.7026L15.5768 18.0686C15.4039 18.23 15.2883 18.3389 15.2542 18.3745C15.1292 18.5046 15.0011 18.6279 14.8782 18.7463C14.1191 19.478 13.5502 20.0266 14.9102 20.9226C15.5631 21.3533 16.0862 21.7092 16.6072 22.0645L16.6171 22.071C17.1837 22.4568 17.7494 22.842 18.4801 23.321C18.6671 23.4438 18.8462 23.5713 19.0211 23.6956C19.6831 24.1682 20.2792 24.5928 21.0151 24.5251C21.4421 24.4856 21.8842 24.0837 22.1082 22.8848C22.6382 20.051 23.6802 13.9116 23.9211 11.3816C23.9421 11.1599 23.9161 10.8762 23.8942 10.7517C23.8868 10.7083 23.8766 10.6584 23.8595 10.6062C23.8276 10.5088 23.772 10.4038 23.6671 10.3184C23.4751 10.1628 23.1791 10.1299 23.0471 10.1323C22.4452 10.1428 21.5211 10.4641 17.0781 12.312Z" fill="white"/>
<path d="M43.0132 23.5H45.9132V12.2104H49.6372V9.79126H39.2892V12.2104H43.0132V23.5Z" fill="white"/>
<path fill-rule="evenodd" clip-rule="evenodd" d="M57.7281 14.0728C56.8832 13.2407 55.7372 12.8247 54.2911 12.8247C53.3052 12.8247 52.4412 13.0295 51.6992 13.4392C50.9572 13.8489 50.3741 14.4631 49.9521 15.2825C49.5422 16.0889 49.3372 17.1064 49.3372 18.3352C49.3372 19.5383 49.5682 20.5369 50.0292 21.3303C50.4891 22.124 51.1232 22.7192 51.9292 23.116C52.7362 23.5 53.6642 23.6919 54.7133 23.6919C55.5201 23.6919 56.2052 23.6279 56.7682 23.5C57.3442 23.3848 57.8882 23.1992 58.4001 22.9431V20.7351C58.037 20.9089 57.681 21.0557 57.3325 21.1758C57.1158 21.2505 56.9021 21.3147 56.6912 21.3687C56.1412 21.4968 55.5262 21.5608 54.8481 21.5608C54.0411 21.5608 53.4082 21.3303 52.9471 20.8696C52.4991 20.4087 52.2622 19.7751 52.2372 18.9688H58.9952V17.5864C58.9952 16.0632 58.5731 14.8918 57.7281 14.0728ZM52.9282 15.3975C53.2992 15.0391 53.7601 14.8599 54.3102 14.8599C54.9891 14.8599 55.4882 15.071 55.8082 15.4937C56.1282 15.9031 56.2942 16.428 56.3073 17.0679H52.2942C52.3582 16.3127 52.5692 15.7559 52.9282 15.3975Z" fill="white"/>
<path d="M61.1151 23.5H63.9752V8.90796H61.1151V23.5Z" fill="white"/>
<path fill-rule="evenodd" clip-rule="evenodd" d="M74.5211 14.0728C73.6771 13.2407 72.5311 12.8247 71.0852 12.8247C70.0991 12.8247 69.2352 13.0295 68.4932 13.4392C67.7502 13.8489 67.1682 14.4631 66.7452 15.2825C66.3362 16.0889 66.1312 17.1064 66.1312 18.3352C66.1312 19.5383 66.3612 20.5369 66.8221 21.3303C67.2832 22.124 67.9171 22.7192 68.7231 23.116C69.5292 23.5 70.4572 23.6919 71.5072 23.6919C72.3132 23.6919 72.9982 23.6279 73.5612 23.5C73.8573 23.4407 74.145 23.3628 74.4243 23.2664C74.6881 23.1753 74.9445 23.0676 75.1932 22.9431V20.7351C74.6052 21.0168 74.0352 21.228 73.4852 21.3687C72.9342 21.4968 72.3202 21.5608 71.6412 21.5608C70.8352 21.5608 70.2012 21.3303 69.7412 20.8696C69.2932 20.4087 69.0562 19.7751 69.0302 18.9688H75.7892V17.5864C75.7892 16.0632 75.3662 14.8918 74.5211 14.0728ZM69.7212 15.3975C70.0931 15.0391 70.5532 14.8599 71.1041 14.8599C71.7822 14.8599 72.2812 15.071 72.6012 15.4937C72.9211 15.9031 73.0883 16.428 73.1012 17.0679H69.0883C69.1522 16.3127 69.3632 15.7559 69.7212 15.3975Z" fill="white"/>
<path fill-rule="evenodd" clip-rule="evenodd" d="M84.3402 14.3608C83.6112 13.3367 82.6002 12.8247 81.3073 12.8247C80.0522 12.8247 79.0671 13.3047 78.3502 14.2646C77.6332 15.2249 77.2751 16.5623 77.2751 18.2776C77.2751 19.98 77.6202 21.311 78.3121 22.2712C79.0162 23.2183 79.9882 23.6919 81.2302 23.6919C81.8572 23.6919 82.4202 23.5703 82.9202 23.3271C83.4192 23.084 83.8481 22.6873 84.2062 22.1367H84.2832C84.2742 22.2622 84.2621 22.4001 84.2468 22.5508L84.2252 22.7512C84.2122 22.9814 84.2062 23.2056 84.2062 23.4231V23.6343C84.2062 25.2214 83.4702 26.0151 81.9982 26.0151C80.5642 26.0151 79.2012 25.7463 77.9082 25.2087V27.4937C78.5103 27.7239 79.1241 27.884 79.7522 27.9736C80.3922 28.0632 81.0833 28.1079 81.8252 28.1079C83.5532 28.1079 84.8591 27.7175 85.7422 26.9368C86.6252 26.156 87.0673 25.0168 87.0673 23.519V13.0168H84.6482L84.4171 14.3608H84.3402ZM80.1932 18.3159C80.1932 16.2039 80.8652 15.1479 82.2092 15.1479C82.9772 15.1479 83.5342 15.3911 83.8802 15.8774C84.2252 16.364 84.3982 17.1704 84.3982 18.2969V18.6423C84.3982 19.6792 84.2192 20.4087 83.8602 20.8311C83.5153 21.2407 82.9772 21.4456 82.2482 21.4456C80.8782 21.4456 80.1932 20.4023 80.1932 18.3159Z" fill="white"/>
<path d="M96.028 12.833C95.9122 12.8274 95.8075 12.8247 95.7142 12.8247C95.0103 12.8247 94.3903 13.0168 93.8522 13.4009C93.3142 13.7847 92.8922 14.2456 92.5852 14.7832H92.4502L92.0282 13.0168H89.8582V23.5H92.7191V18.1624C92.7191 17.4968 92.8542 16.9719 93.1222 16.5879C93.4042 16.2039 93.7692 15.9287 94.2172 15.7625C94.6652 15.5833 95.1322 15.4937 95.6182 15.4937C95.7462 15.4937 95.8942 15.5063 96.0602 15.532C96.1608 15.5391 96.2474 15.5483 96.3198 15.5596C96.3763 15.5684 96.4242 15.5784 96.4633 15.5896L96.6742 12.9016C96.6125 12.8879 96.54 12.876 96.4565 12.866C96.3842 12.8572 96.3033 12.8499 96.2142 12.844C96.1493 12.8396 96.0872 12.8359 96.028 12.833Z" fill="white"/>
<path fill-rule="evenodd" clip-rule="evenodd" d="M105.529 13.7271C104.786 13.1128 103.711 12.8057 102.303 12.8057C101.561 12.8057 100.844 12.8887 100.153 13.0552C99.4742 13.2214 98.8531 13.4519 98.2902 13.7463L99.2312 15.6855C99.7172 15.468 100.204 15.2888 100.69 15.1479C101.177 14.9944 101.676 14.9175 102.188 14.9175C102.428 14.9175 102.643 14.9456 102.832 15.002C103.047 15.0657 103.229 15.1655 103.378 15.3015C103.673 15.5576 103.82 15.9607 103.82 16.5112V16.9719L101.996 17.0295C100.434 17.0808 99.2632 17.3752 98.4822 17.9128C97.7012 18.4375 97.3112 19.2568 97.3112 20.3704C97.3112 21.4968 97.6182 22.3352 98.2332 22.8855C98.8472 23.4231 99.6212 23.6919 100.556 23.6919C101.426 23.6919 102.111 23.564 102.61 23.3079C103.109 23.052 103.583 22.6423 104.031 22.0791H104.108L104.665 23.5H106.661V16.5112C106.661 15.2568 106.284 14.3289 105.529 13.7271ZM100.786 19.1799C101.145 18.8728 101.785 18.7063 102.706 18.6807L103.82 18.6423V19.5063C103.82 20.1719 103.609 20.6904 103.186 21.0615C102.764 21.4199 102.245 21.5991 101.631 21.5991C101.221 21.5991 100.889 21.5095 100.633 21.3303C100.377 21.1384 100.249 20.8247 100.249 20.3896C100.249 19.8904 100.428 19.4871 100.786 19.1799Z" fill="white"/>
<path d="M124.385 13.7463C123.783 13.1318 122.887 12.8247 121.697 12.8247C121.338 12.8247 120.983 12.8679 120.633 12.9546C120.396 13.0132 120.162 13.0916 119.93 13.1895C119.367 13.4329 118.926 13.8232 118.606 14.3608H118.356C118.195 14.0601 117.991 13.8057 117.746 13.5974C117.563 13.4421 117.357 13.3125 117.127 13.2087C116.59 12.9529 115.937 12.8247 115.169 12.8247C114.567 12.8247 113.985 12.9463 113.422 13.1895C112.871 13.4329 112.436 13.8232 112.116 14.3608H111.962L111.578 13.0168H109.39V23.5H112.25V18.5657C112.25 17.4519 112.398 16.6008 112.692 16.012C112.999 15.4104 113.55 15.1096 114.343 15.1096C115.393 15.1096 115.918 15.8647 115.918 17.3752V23.5H118.778V18.2393C118.778 17.228 118.938 16.4536 119.258 15.916C119.578 15.3784 120.116 15.1096 120.871 15.1096C121.921 15.1096 122.446 15.8647 122.446 17.3752V23.5H125.306V16.6648C125.306 15.3208 124.999 14.3479 124.385 13.7463Z" fill="white"/>
</svg>
