<svg width="85" height="33" viewBox="0 0 85 33" fill="none" xmlns="http://www.w3.org/2000/svg">
<path d="M19.1581 18.6914L22.7001 12.3508C22.9341 11.9453 22.6451 11.4253 22.155 11.4253H17.6891V21.5325L19.1581 18.6914Z" fill="white"/>
<path d="M15.6951 21.5295V11.4265H11.2291C10.7391 11.4265 10.4501 11.9463 10.6841 12.3521L14.2281 18.6899L15.6951 21.5295Z" fill="white"/>
<path fill-rule="evenodd" clip-rule="evenodd" d="M16.6941 32.5C25.5302 32.5 32.6941 25.3367 32.6941 16.5C32.6941 7.66333 25.5302 0.5 16.6941 0.5C7.85718 0.5 0.693848 7.66333 0.693848 16.5C0.693848 25.3367 7.85718 32.5 16.6941 32.5ZM11.2301 9.42993C9.22119 9.42993 7.94812 11.5972 8.95813 13.3491L15.7021 25.0376C16.1421 25.8008 17.2451 25.8008 17.6852 25.0376L24.4302 13.3491C25.4391 11.5999 24.1661 9.42993 22.1582 9.42993H11.2301Z" fill="white"/>
<path d="M42.7802 25.3386H46.3632V12.8408H51.3181V9.43628H37.8241V12.8408H42.7802V25.3386Z" fill="white"/>
<path fill-rule="evenodd" clip-rule="evenodd" d="M59.931 25.6074C64.4551 25.6074 68.151 21.9119 68.151 17.3875C68.151 12.8633 64.4551 9.16748 59.931 9.16748C55.385 9.16748 51.7111 12.8633 51.7111 17.3875C51.7111 21.9119 55.385 25.6074 59.931 25.6074ZM59.931 22.1582C57.333 22.1582 55.295 19.9631 55.295 17.3875C55.295 14.8118 57.333 12.6167 59.931 12.6167C62.5071 12.6167 64.545 14.8118 64.545 17.3875C64.545 19.9631 62.5071 22.1582 59.931 22.1582Z" fill="white"/>
<path d="M81.4362 25.3386H84.5051V9.43628H80.9211V19.2466L73.1941 9.43628H70.1251V25.3386H73.6871V15.5061L81.4362 25.3386Z" fill="white"/>
</svg>
