<svg width="163" height="26" viewBox="0 0 163 26" fill="none" xmlns="http://www.w3.org/2000/svg">
<path d="M37.0824 0.500003V5.49999L0.416016 5.49999V0.5L37.0824 0.500003Z" fill="#F5F5F7"/>
<path d="M15.5831 11.8334L21.9164 5.50004V25.5H15.5831V11.8334Z" fill="#F5F5F7"/>
<path fill-rule="evenodd" clip-rule="evenodd" d="M46.5827 25.4999H70.5826L76.9159 19.1666V6.83332L70.5826 0.5L46.5827 0.500025L40.2494 6.83332V19.1666L46.5827 25.4999ZM70.5826 4.45835L46.5827 4.45835V21.5L70.5826 21.5V4.45835Z" fill="#F5F5F7"/>
<path d="M81.5824 0.500002H93.9144L112.581 25.4999H105.581L86.9157 0.501661V25.4999H81.5824V0.500002Z" fill="#F5F5F7"/>
<path d="M117.915 0.500002H112.582V25.4999H117.915V0.500002Z" fill="#F5F5F7"/>
<path d="M135.785 12.9999L122.583 0.5H129.822L142.583 12.9999L129.822 25.4999H122.583L135.785 12.9999Z" fill="#F5F5F7"/>
<path d="M142.583 12.9999L155.345 0.5H162.584L149.382 12.9999L162.584 25.4999H155.345L142.583 12.9999Z" fill="#F5F5F7"/>
</svg>
